<?xml version="1.0" encoding="utf-8"?>
<!-- Generator: Adobe Illustrator 27.2.0, SVG Export Plug-In . SVG Version: 6.00 Build 0)  -->
<svg version="1.1" id="Layer_1" xmlns="http://www.w3.org/2000/svg" xmlns:xlink="http://www.w3.org/1999/xlink" x="0px" y="0px"
	 viewBox="0 0 32 32" style="enable-background:new 0 0 32 32;" xml:space="preserve">
<style type="text/css">
	.st0{fill:#FFFFFF;}
</style>
<path class="st0" d="M16,1C7.7,1,1,7.8,1,16c0,6.6,4.3,12.3,10.3,14.3c0.8,0.1,1-0.3,1-0.8V27c-4.2,0.9-5-2-5-2
	c-0.7-1.7-1.7-2.2-1.7-2.2c-1.4-0.9,0.1-0.9,0.1-0.9c1.5,0.1,2.3,1.5,2.3,1.5c1.3,2.3,3.5,1.6,4.4,1.2c0.1-1,0.5-1.6,0.9-2
	c-3.3-0.4-6.8-1.7-6.8-7.4c0-1.7,0.6-3,1.5-4.1c-0.1-0.4-0.7-1.9,0.1-4c0,0,1.3-0.4,4.1,1.5c1.2-0.3,2.5-0.5,3.7-0.5
	s2.6,0.2,3.7,0.5c2.9-1.9,4.1-1.5,4.1-1.5c0.8,2,0.3,3.6,0.1,4c1,1.1,1.5,2.4,1.5,4.1c0,5.7-3.5,7-6.9,7.4c0.5,0.5,1,1.4,1,2.8v4.1
	c0,0.4,0.2,0.9,1,0.8c6-2,10.3-7.6,10.3-14.3C31,7.8,24.3,1,16,1L16,1z"/>
</svg>
